<svg xmlns="http://www.w3.org/2000/svg" width="1088.189" height="898.767" viewBox="0 0 1088.189 898.767">
  <defs>
    <style>
      .cls-1 {
        fill: #4467ff;
      }
    </style>
  </defs>
  <path id="패스_9" data-name="패스 9" class="cls-1" d="M606.108,249.237c-107.62-2.873-164.924,113.873-184.789,159.146s-50.355,107.409-97.938,129.352-85,15.245-121.961,46.2,2.974,48.969-16.631,84.079S145.175,685.8,123,724.373,85.725,772.88,96.09,822.311s11.549,69.758,68.372,99.786,77.611,25.409,158.918,20.327,91.932-35.572,166.31-40.654,83.617,2.31,131.2,20.327,63.29,40.654,127.5,50.817,140.44,0,140.44,0,109.025,0,166.31-103.482-37.42-148.986-22.175-246.693,62.366-77.611,83.155-144.135,7.392-119.189-38.806-181.093S1023.388,80.651,923.445,182.488,713.728,252.11,606.108,249.237Z" transform="matrix(-0.998, 0.07, -0.07, -0.998, 1191.086, 968.58)"/>
</svg>
