<svg xmlns="http://www.w3.org/2000/svg" width="1265.019" height="1154.577" viewBox="0 0 1265.019 1154.577">
  <defs>
    <style>
      .cls-1 {
        fill: #4467ff;
      }
    </style>
  </defs>
  <path id="패스_10" data-name="패스 10" class="cls-1" d="M748.4,249.237c-70.682,0-77.611-12.068-142.287,0s-70.22,8.486-116.417,48.273-48.507,65.6-68.372,110.873-5.082,55.437-29.566,87.775-20.789,19.634-68.372,41.577-85,15.245-121.961,46.2,2.974,48.969-16.631,84.079S145.175,685.8,123,724.373,85.725,772.88,96.09,822.311s-34.251,67.873,22.571,97.9,95.6,36.9,176.908,31.82,145.139-76.422,252.469-75.712S684.181,962.75,748.4,972.914s140.44,0,140.44,0,109.025,0,166.31-103.482-37.42-148.986-22.175-246.693,62.366-77.611,83.155-144.135,7.392-119.189-38.806-181.093-126.581-60.227-188.485-48.273S819.077,249.237,748.4,249.237Z" transform="translate(853.505 1409.303) rotate(-150)"/>
</svg>
