<svg id="그룹_1" data-name="그룹 1" xmlns="http://www.w3.org/2000/svg" width="328.029" height="284.747" viewBox="0 0 328.029 284.747">
  <defs>
    <style>
      .cls-1 {
        fill: #facb3a;
      }
    </style>
  </defs>
  <path id="패스_1" data-name="패스 1" class="cls-1" d="M327.819,133.863c-.124-2.192-.3-4.383-.53-6.557-.23-2.192-.513-4.383-.848-6.557a140.237,140.237,0,0,0-3.694-17.055c-.619-2.209-1.29-4.383-2.033-6.557-.742-2.209-1.538-4.383-2.386-6.557-.477-1.2-.954-2.4-1.467-3.588A139.394,139.394,0,0,0,310.3,73.524c-1.237-2.227-2.51-4.419-3.853-6.557q-2.094-3.34-4.365-6.557a142.659,142.659,0,0,0-14.157-17.055c-.513-.53-1.043-1.078-1.573-1.608-1.7-1.7-3.446-3.358-5.214-4.966q-3.791-3.42-7.777-6.557a140.334,140.334,0,0,0-27.907-17.055c-1.432-.672-2.881-1.308-4.348-1.926q-6.2-2.625-12.566-4.631A140.639,140.639,0,0,0,185.684,0h-43.3c-.866,0-1.75.018-2.616.018-.283,0-.548.018-.831.018l-1.785.053c-.318.018-.636.035-.954.035-.548.018-1.113.053-1.661.071l-.99.053L131.9.353c-.318.018-.654.053-.972.071-.566.053-1.113.088-1.679.141-.3.035-.6.053-.919.088-.583.053-1.184.124-1.767.194-.265.035-.53.053-.813.088-.654.071-1.308.159-1.962.247-.194.018-.407.053-.6.071-.813.106-1.608.23-2.421.353-.053,0-.088.018-.141.018-2.669.407-5.32.9-7.953,1.449-.035,0-.071.018-.124.018-.831.177-1.644.353-2.457.548a2.2,2.2,0,0,0-.283.071c-.778.177-1.538.371-2.3.566-.106.035-.212.053-.318.088-.76.194-1.52.389-2.28.6-.106.035-.194.053-.3.088-.778.212-1.555.442-2.333.654l-.212.053c-.848.247-1.679.495-2.51.76h0c-.689.212-1.361.442-2.05.654-.053.018-.124.035-.177.053-.636.212-1.29.442-1.926.654a1.325,1.325,0,0,1-.283.088c-.619.212-1.237.442-1.856.672-.106.035-.212.088-.336.124-.6.23-1.2.46-1.82.689-.124.053-.23.088-.353.141-.6.23-1.2.477-1.8.707-.106.053-.23.088-.336.141l-1.8.742c-.106.035-.194.088-.3.124-.619.265-1.22.53-1.838.8-.071.035-.124.053-.194.088-.654.283-1.29.583-1.926.866h0c-1.75.813-3.464,1.644-5.179,2.527-.177.088-.336.177-.513.265-.406.212-.813.424-1.237.654-.283.141-.548.283-.813.442-.353.194-.707.389-1.078.583-.336.177-.672.371-1.007.548-.318.177-.619.353-.937.53-.407.23-.813.46-1.22.707-.247.141-.477.283-.725.424-.654.389-1.308.778-1.944,1.166s-1.255.778-1.873,1.166c-.23.141-.46.3-.689.442-.389.247-.76.495-1.149.742-.283.194-.566.371-.866.566-.318.212-.619.424-.937.636s-.654.442-.972.672c-.247.177-.513.353-.76.53-.371.247-.725.513-1.078.76-.159.124-.336.247-.495.353q-2.253,1.644-4.454,3.34h0c-2.686,2.1-5.285,4.277-7.794,6.557l-.018.018c-.583.53-1.149,1.06-1.732,1.591h0c-.583.53-1.149,1.078-1.714,1.626h0c-.566.548-1.131,1.1-1.679,1.644l-.018.018c-.548.548-1.1,1.113-1.644,1.661h0C39.466,43.814,38.9,44.4,38.353,45c-.088.088-.177.194-.265.283-.46.495-.919,1.007-1.379,1.5-.141.141-.265.3-.389.442L35.1,48.6c-.159.177-.318.353-.46.53-.371.442-.76.866-1.131,1.308-.177.194-.336.407-.513.619-.353.424-.707.848-1.043,1.273-.177.212-.353.442-.53.654-.336.407-.672.831-.99,1.237-.177.23-.371.477-.548.707-.318.407-.636.813-.937,1.22-.194.247-.371.495-.566.742l-.9,1.22c-.194.265-.371.513-.566.778-.283.407-.583.8-.866,1.2-.194.265-.371.53-.566.8-.283.407-.548.8-.831,1.2-.194.283-.371.548-.566.831-.265.406-.53.813-.813,1.22-.177.283-.371.566-.548.848-.265.407-.53.813-.778,1.22l-.53.848c-.265.424-.513.831-.76,1.255-.177.283-.336.566-.513.848-.265.442-.513.866-.778,1.308-.159.265-.318.53-.477.813-.283.477-.548.954-.813,1.449-.124.23-.265.46-.389.689-.389.707-.8,1.432-1.166,2.156A146.6,146.6,0,0,0,4.312,107.458a143.641,143.641,0,0,0,0,69.866l.53,2.068A140.963,140.963,0,0,0,16.561,209.12c.389.725.778,1.449,1.166,2.156.124.23.265.46.389.689.265.477.548.972.813,1.449.159.265.318.53.477.813.265.442.513.884.778,1.308.177.283.336.566.513.848.247.424.513.831.778,1.255l.53.848c.265.407.513.831.778,1.237.177.283.371.566.548.831.265.407.53.813.813,1.22.177.283.371.548.566.813.283.406.548.813.831,1.2.194.265.371.53.566.8.283.406.583.813.866,1.219.194.265.371.513.566.778l.9,1.22c.177.247.371.495.566.742.318.407.636.813.954,1.237.177.23.371.46.548.707.336.424.654.831.99,1.255.177.212.353.442.53.654l1.06,1.273c.159.194.336.407.495.6.371.442.76.884,1.131,1.326.159.177.3.353.46.53l1.237,1.4c.124.141.247.283.389.424.46.513.937,1.025,1.4,1.52a1.892,1.892,0,0,1,.247.283c.566.6,1.113,1.184,1.679,1.767q3.287,3.393,6.787,6.557c2.51,2.28,5.125,4.472,7.794,6.557,1.467,1.149,2.969,2.262,4.472,3.358.159.106.318.23.477.336.371.265.725.513,1.1.778.247.177.495.353.742.513.318.23.654.442.972.672.3.212.619.424.919.619.283.194.583.389.866.583.389.247.76.495,1.149.742.23.141.46.3.689.442.619.389,1.237.778,1.873,1.166.654.389,1.29.8,1.944,1.167.247.141.477.283.725.424.407.23.813.477,1.22.707.3.177.619.353.919.53.336.194.672.371,1.007.566.353.194.707.389,1.078.583.265.141.548.3.831.442l1.22.636c.177.088.353.177.513.265,1.714.884,3.429,1.714,5.179,2.527h0c.636.3,1.29.583,1.926.866.071.035.124.053.194.088.619.265,1.22.53,1.838.8.106.035.194.088.3.124l1.8.742c.106.053.23.088.336.141.6.247,1.2.477,1.8.707.124.053.23.088.353.141.6.23,1.2.46,1.82.689.106.035.212.088.318.124.619.23,1.237.442,1.856.672a1.558,1.558,0,0,0,.265.088c.636.23,1.29.442,1.926.654.053.018.124.035.177.053.672.23,1.361.442,2.033.654h0c.831.265,1.679.513,2.51.76.071.018.141.035.194.053.778.23,1.555.442,2.333.654.106.035.194.053.3.088.76.212,1.52.406,2.28.6.106.035.212.053.318.088.76.194,1.538.371,2.315.566a2.189,2.189,0,0,1,.283.071c.813.194,1.644.371,2.457.548.035,0,.071.018.106.018,2.633.566,5.285,1.043,7.953,1.449.053,0,.088.018.141.018.8.124,1.608.247,2.421.353.194.035.407.053.6.071.654.088,1.308.177,1.962.247.265.035.53.053.8.088.583.071,1.184.124,1.767.194.3.035.6.053.919.088.566.053,1.113.106,1.679.141.318.018.654.053.972.071l1.644.106.99.053c.548.035,1.1.053,1.661.071.318.018.636.035.972.035l1.785.053c.283,0,.548.018.831.018.866.018,1.75.018,2.616.018h43.284a142.239,142.239,0,0,0,42.86-6.557c4.242-1.343,8.448-2.881,12.566-4.631,1.467-.619,2.916-1.255,4.348-1.926a142.006,142.006,0,0,0,27.907-17.055q4-3.128,7.777-6.557c1.767-1.608,3.517-3.252,5.214-4.966.53-.53,1.06-1.06,1.573-1.608a144.064,144.064,0,0,0,14.157-17.055q2.28-3.208,4.366-6.557c1.343-2.156,2.633-4.33,3.853-6.557a148.029,148.029,0,0,0,6.557-13.468c.513-1.184.99-2.386,1.467-3.588.848-2.174,1.644-4.365,2.386-6.557.725-2.174,1.414-4.365,2.033-6.557a140.225,140.225,0,0,0,3.694-17.055c.336-2.174.619-4.365.848-6.557.23-2.174.407-4.365.53-6.557.159-2.828.247-5.673.247-8.537C328.066,139.537,327.978,136.691,327.819,133.863Zm-18.805-30.187a124.9,124.9,0,0,1,4.1,17.055H283.139a140.225,140.225,0,0,0-3.694-17.055Zm-14-30.187A131.174,131.174,0,0,1,304.1,90.544H275.044c-.477-1.2-.954-2.4-1.467-3.588a139.387,139.387,0,0,0-6.557-13.468Zm-9.491-13.114H258.819a142.656,142.656,0,0,0-14.157-17.055h23.966A130.57,130.57,0,0,1,285.525,60.375Zm-35.7-30.187H230.081a140.839,140.839,0,0,0-24.8-15.571A128.308,128.308,0,0,1,249.823,30.187ZM140.191,271.633c-.247,0-.495-.018-.742-.018-.477-.018-.972-.018-1.449-.035-.3-.018-.6-.018-.9-.035l-1.273-.053-.972-.053c-.406-.018-.8-.053-1.2-.071-.336-.018-.689-.053-1.025-.071-.389-.035-.76-.053-1.149-.088-.353-.035-.707-.071-1.06-.088l-1.1-.106c-.371-.035-.725-.071-1.1-.124-.353-.035-.707-.071-1.06-.124-.371-.035-.742-.088-1.113-.141-.336-.035-.689-.088-1.025-.124l-1.149-.159c-.336-.053-.654-.088-.99-.141-.389-.053-.778-.124-1.166-.177l-.954-.159c-.407-.071-.8-.141-1.2-.212l-.9-.159c-.407-.071-.813-.159-1.22-.23-.283-.053-.583-.106-.866-.177-.424-.088-.831-.177-1.255-.265-.283-.053-.548-.124-.831-.177-.424-.088-.848-.194-1.29-.283-.265-.053-.513-.124-.778-.177l-1.326-.318c-.247-.053-.477-.124-.725-.177-.46-.124-.9-.23-1.361-.353-.212-.053-.442-.124-.654-.177-.477-.124-.937-.265-1.414-.389l-.583-.159c-.495-.141-.99-.283-1.485-.442a4.886,4.886,0,0,0-.477-.141c-.513-.159-1.043-.318-1.555-.495a2.079,2.079,0,0,1-.353-.124c-.548-.177-1.113-.353-1.661-.548-.071-.018-.124-.053-.194-.071A129.843,129.843,0,0,1,78.1,254.63h-.018a127.9,127.9,0,0,1-18.805-13.114h0q-1.7-1.432-3.34-2.916l-.088-.088q-1.617-1.458-3.181-2.969l-.106-.106q-1.564-1.511-3.075-3.075c-.035-.035-.053-.071-.088-.088q-1.538-1.591-3.022-3.234L46.341,229q-2.015-2.227-3.924-4.56h0a130.134,130.134,0,0,1-9.456-13.114h0c-.831-1.308-1.644-2.651-2.421-3.994-.035-.053-.053-.088-.088-.141-.353-.6-.689-1.2-1.025-1.82-.053-.106-.106-.194-.159-.3-.389-.689-.76-1.379-1.131-2.086-.619-1.149-1.22-2.315-1.785-3.5-.283-.583-.566-1.184-.848-1.767-.566-1.184-1.1-2.386-1.626-3.57-.265-.6-.513-1.2-.778-1.8A129.494,129.494,0,0,1,28.137,81.866c.371-.707.742-1.4,1.131-2.086.053-.088.106-.194.159-.283.336-.6.689-1.22,1.025-1.82.035-.053.053-.088.088-.141a129.842,129.842,0,0,1,15.8-21.686l.035-.035q1.485-1.644,3.022-3.234l.088-.088Q51,50.928,52.563,49.417l.106-.106q1.564-1.511,3.181-2.969c.035-.018.053-.053.088-.071A129.038,129.038,0,0,1,100.654,20.06a.739.739,0,0,0,.177-.071c.566-.194,1.113-.371,1.679-.548.124-.035.23-.071.353-.106.53-.159,1.043-.336,1.573-.495a4.876,4.876,0,0,1,.477-.141c.495-.141.99-.3,1.485-.442.194-.053.371-.106.566-.159.477-.141.954-.265,1.432-.389.212-.053.424-.124.636-.177.46-.124.919-.247,1.379-.353.23-.053.477-.124.707-.177l1.326-.318c.247-.053.513-.124.76-.177.424-.106.866-.194,1.29-.283.265-.053.548-.124.813-.177.424-.088.848-.177,1.255-.265.283-.053.566-.106.866-.177.407-.088.813-.159,1.237-.23l.9-.159c.407-.071.8-.141,1.2-.212.318-.053.619-.106.937-.159.389-.071.778-.124,1.184-.177.318-.053.654-.088.972-.141l1.149-.159c.336-.053.672-.088,1.007-.124.371-.053.742-.088,1.131-.141.353-.035.689-.071,1.043-.124.371-.035.725-.088,1.1-.124.353-.035.725-.071,1.1-.106.353-.035.707-.071,1.078-.088.371-.035.76-.053,1.131-.088.336-.018.689-.053,1.025-.071.406-.035.8-.053,1.2-.071l.99-.053,1.273-.053c.3-.018.6-.035.9-.035.477-.018.954-.018,1.432-.035.247,0,.513-.018.76-.018.725-.018,1.467-.018,2.192-.018A128.468,128.468,0,0,1,206.5,30.276,129.932,129.932,0,0,1,225.291,43.39a129.819,129.819,0,0,1,35.49,47.225,129.727,129.727,0,0,1,4.931,13.114,124.9,124.9,0,0,1,4.1,17.055q1.087,6.469,1.538,13.114c.177,2.828.283,5.673.283,8.537s-.088,5.709-.283,8.537a127.709,127.709,0,0,1-1.538,13.114,129.653,129.653,0,0,1-4.1,17.055,128.147,128.147,0,0,1-4.931,13.114,129.665,129.665,0,0,1-18.575,30.17,128.529,128.529,0,0,1-16.914,17.055A130.9,130.9,0,0,1,206.5,254.6a128.468,128.468,0,0,1-64.139,17.055C141.658,271.651,140.915,271.651,140.191,271.633Zm65.094-1.467a141.876,141.876,0,0,0,24.8-15.571h19.742A128.668,128.668,0,0,1,205.284,270.166Zm63.326-28.7H244.645A144.07,144.07,0,0,0,258.8,224.408h26.706A129.464,129.464,0,0,1,268.611,241.463Zm26.405-30.17H267.038a148.02,148.02,0,0,0,6.557-13.468c.513-1.184.99-2.386,1.467-3.588h29.056A134.656,134.656,0,0,1,295.016,211.294Zm14-30.187H279.445a140.226,140.226,0,0,0,3.694-17.055h29.975A125.529,125.529,0,0,1,309.014,181.106Zm5.656-30.187H284.535c.159-2.828.247-5.673.247-8.537s-.088-5.709-.247-8.537h30.134c.177,2.828.283,5.673.283,8.537S314.846,148.091,314.669,150.919Z"/>
  <rect id="사각형_1" data-name="사각형 1" class="cls-1" width="1.326" height="3.446" transform="translate(43.085 193.758) rotate(-28.6)"/>
  <path id="패스_2" data-name="패스 2" class="cls-1" d="M258.8,1114.774l-1.1-1.75-5.09-.442-.035-.035,3.446-2.174-1.007-1.573-7.918,5,1.007,1.591,2.227-1.414,1.979.195-2.262,4.295,1.113,1.75,2.987-5.885Z" transform="translate(-203.427 -912.83)"/>
  <path id="패스_3" data-name="패스 3" class="cls-1" d="M289.53,1165.927a3.737,3.737,0,1,0-.919,4.966A3.465,3.465,0,0,0,289.53,1165.927Zm-2.068,3.464c-1.06.8-2.068.884-2.651.124s-.23-1.714.831-2.527c1.078-.813,2.1-.9,2.669-.141C288.912,1167.606,288.54,1168.578,287.462,1169.391Z" transform="translate(-232.903 -958.769)"/>
  <path id="패스_4" data-name="패스 4" class="cls-1" d="M316.539,1202.37a1.722,1.722,0,0,1,.389.636l1.432-.813a1.846,1.846,0,0,0-.442-.724,2.433,2.433,0,0,0-2.4-.566l-.035-.035.866-.919-1.007-1.149L310,1203.466l1.22,1.4,3.181-2.775A1.863,1.863,0,0,1,316.539,1202.37Z" transform="translate(-255.21 -986.923)"/>
  <path id="패스_5" data-name="패스 5" class="cls-1" d="M346.19,1236.775a3.571,3.571,0,0,0,.654-.53c1.4-1.379,1.679-3.111.3-4.489a3.479,3.479,0,0,0-4.984.3,3.435,3.435,0,0,0-.141,5.108,4.582,4.582,0,0,0,2.315,1.2l.353-1.255a3.094,3.094,0,0,1-1.485-.778,1.864,1.864,0,0,1-.141-2.634Zm-.035-3.977a1.325,1.325,0,0,1-.159,2.05l-2.033-2.05A1.6,1.6,0,0,1,346.155,1232.8Z" transform="translate(-280.69 -1013.304)"/>
  <path id="패스_6" data-name="패스 6" class="cls-1" d="M379.391,1261.319a5.625,5.625,0,0,0-2.863-1.219l-.3,1.361a4.028,4.028,0,0,1,1.909.76,1.1,1.1,0,0,1,.106,1.714c-2.351-1.626-3.8-1.82-4.79-.672a2.029,2.029,0,0,0,.212,2.969,3.318,3.318,0,0,0,2.227.689l.035.018-.389.672,1.149.99,2.7-3.128C380.752,1263.918,380.752,1262.5,379.391,1261.319ZM376.6,1265.9a1.813,1.813,0,0,1-1.485-.371.81.81,0,0,1-.194-1.219c.407-.477,1.167-.459,2.616.495Z" transform="translate(-306.998 -1037.389)"/>
  <path id="패스_7" data-name="패스 7" class="cls-1" d="M436.052,1291.932l-2.139-1.431-5.214,7.776,2.209,1.485c2.3,1.538,4.631,1.219,6.4-1.4S438.421,1293.522,436.052,1291.932Zm-.336,5.373c-1.273,1.891-2.686,2.068-4.153,1.1l-.477-.318,3.552-5.285.477.318C436.565,1294.088,436.989,1295.4,435.717,1297.3Z" transform="translate(-352.931 -1062.416)"/>
  <path id="패스_8" data-name="패스 8" class="cls-1" d="M504.191,1318.9a1.109,1.109,0,0,0-1.909-1.114,1.11,1.11,0,0,0,1.909,1.114Z" transform="translate(-413.399 -1084.469)"/>
  <rect id="사각형_2" data-name="사각형 2" class="cls-1" width="7.087" height="1.856" transform="matrix(0.499, -0.867, 0.867, 0.499, 84.408, 241.408)"/>
  <path id="패스_9" data-name="패스 9" class="cls-1" d="M506.117,1351.492l.6-1.219-2.3-1.131a3.789,3.789,0,0,0-.866-.636,2.628,2.628,0,0,0-3.712,1.025,2.342,2.342,0,0,0,.018,2.068l-.018.053a1.745,1.745,0,0,0-1.29.848,1.325,1.325,0,0,0,.053,1.361l-.035.053a1.707,1.707,0,0,0-1.555.866c-.566,1.113.353,2.209,1.838,2.952,2.121,1.06,3.924.742,4.56-.548.548-1.114-.035-2-1.573-2.757l-1.078-.53c-.742-.371-.9-.672-.742-1.025a.691.691,0,0,1,.548-.407,2.974,2.974,0,0,0,.742.548c1.361.672,2.81.495,3.517-.937a1.744,1.744,0,0,0,.177-1.114Zm-5.974,3.694.778.389c.672.336.99.636.778,1.1-.247.495-1.113.583-2.068.124-.937-.46-1.361-1.06-1.1-1.591a1.047,1.047,0,0,1,.778-.53A4.983,4.983,0,0,0,500.143,1355.186Zm3.252-3.888a1.142,1.142,0,0,1-1.573.672,1.158,1.158,0,0,1-.424-1.661,1.142,1.142,0,0,1,1.573-.672A1.129,1.129,0,0,1,503.4,1351.3Z" transform="translate(-409.033 -1109.87)"/>
  <path id="패스_10" data-name="패스 10" class="cls-1" d="M569.331,1350.106a1.011,1.011,0,1,0-.778,1.856,1.011,1.011,0,1,0,.778-1.856Z" transform="translate(-467.476 -1111.4)"/>
  <rect id="사각형_3" data-name="사각형 3" class="cls-1" width="7.087" height="1.856" transform="translate(97.006 247.815) rotate(-67.151)"/>
  <path id="패스_11" data-name="패스 11" class="cls-1" d="M584.747,1366.83l-1.467-.53-.848,1.714-1.06-.283-.477,1.29.937.336-1.06,2.952c-.548,1.5-.3,2.722,1.29,3.287a4.816,4.816,0,0,0,1.5.265l.177-1.379a2.422,2.422,0,0,1-.707-.088c-.6-.212-.778-.689-.495-1.449l1.06-2.952,1.644.6.495-1.379-1.644-.6Z" transform="translate(-477.908 -1124.819)"/>
  <path id="패스_12" data-name="패스 12" class="cls-1" d="M615.242,1389.153a5.782,5.782,0,0,0-3.111.071l.3,1.361a4.106,4.106,0,0,1,2.05-.106,1.108,1.108,0,0,1,.813,1.52c-2.828-.5-4.224-.071-4.648,1.378a2.007,2.007,0,0,0,1.432,2.6,3.32,3.32,0,0,0,2.315-.3l.035.018-.071.76,1.467.424,1.149-3.977C617.558,1390.938,616.974,1389.648,615.242,1389.153Zm-.636,5.32a1.829,1.829,0,0,1-1.5.283c-.53-.159-.831-.495-.672-1.025.177-.6.866-.9,2.58-.636Z" transform="translate(-502.641 -1143.484)"/>
  <path id="패스_13" data-name="패스 13" class="cls-1" d="M660.421,1390.218c-.283,1.29-.018,2.209,1.237,2.492a2.757,2.757,0,0,0,.972.053l.071-1.4a.815.815,0,0,1-.247-.035c-.177-.035-.336-.212-.247-.619l1.785-8.006-1.8-.406Z" transform="translate(-543.613 -1137.991)"/>
  <path id="패스_14" data-name="패스 14" class="cls-1" d="M717.573,1400.76c-.265.566-.495,1.149-.76,1.732h-.071c-.124-.619-.23-1.255-.371-1.856l-1.113-4.525-2.068-.212-.99,9.314,1.679.177.407-3.888c.088-.884.088-2.192.088-3.075h.053l.513,2.262,1.025,4.065,1.078.106,1.856-3.765.99-2.1h.053c-.177.866-.46,2.156-.548,3.04l-.406,3.888,1.7.177.99-9.314-2.068-.212Z" transform="translate(-586.325 -1149.188)"/>
  <path id="패스_15" data-name="패스 15" class="cls-1" d="M782.04,1413.6a3.735,3.735,0,0,0,.141,7.441,4.409,4.409,0,0,0,2.492-.76l-.619-1.149a2.947,2.947,0,0,1-1.608.477,1.867,1.867,0,0,1-1.944-1.785l4.365.053a4.2,4.2,0,0,0,.106-.849C784.991,1415.066,783.984,1413.617,782.04,1413.6Zm-1.555,3a1.606,1.606,0,0,1,1.555-1.555c.919.018,1.343.619,1.326,1.591Z" transform="translate(-641.071 -1163.758)"/>
  <path id="패스_16" data-name="패스 16" class="cls-1" d="M831.4,1395.489l.159,2.492.141,1.114a2.387,2.387,0,0,0-1.838-.654c-1.52.106-2.881,1.608-2.722,3.924.141,2.315,1.379,3.623,3.128,3.517a2.915,2.915,0,0,0,1.891-1.043h.035l.194.725,1.5-.088-.654-10.074Zm-.76,8.819c-.937.053-1.52-.636-1.608-2.1-.088-1.414.53-2.209,1.326-2.262a1.867,1.867,0,0,1,1.343.442l.194,3.111A1.557,1.557,0,0,1,830.64,1404.308Z" transform="translate(-680.941 -1148.776)"/>
  <rect id="사각형_4" data-name="사각형 4" class="cls-1" width="1.856" height="7.087" transform="translate(155.405 249.254) rotate(-7.354)"/>
  <path id="패스_17" data-name="패스 17" class="cls-1" d="M877.883,1393.771a1.02,1.02,0,1,0-1.237-.866A1.041,1.041,0,0,0,877.883,1393.771Z" transform="translate(-721.697 -1145.769)"/>
  <path id="패스_18" data-name="패스 18" class="cls-1" d="M908.939,1402.276a5.674,5.674,0,0,0-2.739,1.485l.884,1.078a4.111,4.111,0,0,1,1.785-1.025,1.106,1.106,0,0,1,1.414.972c-2.74.831-3.8,1.856-3.5,3.34a2,2,0,0,0,2.457,1.661,3.4,3.4,0,0,0,1.926-1.326h.035l.283.725,1.485-.283-.778-4.065C911.82,1402.824,910.707,1401.94,908.939,1402.276Zm.636,5.974c-.53.106-.972-.053-1.078-.6-.124-.619.371-1.184,2.015-1.732l.265,1.4A1.837,1.837,0,0,1,909.576,1408.25Z" transform="translate(-746.038 -1154.379)"/>
  <path id="패스_19" data-name="패스 19" class="cls-1" d="M975.443,1366.983l1.149,3.5-3.376,1.1-1.131-3.5-1.785.566,2.881,8.908,1.785-.566-1.255-3.853,3.376-1.1,1.255,3.853,1.767-.583-2.9-8.907Z" transform="translate(-798.808 -1124.902)"/>
  <path id="패스_20" data-name="패스 20" class="cls-1" d="M1025.679,1353.69a1.111,1.111,0,1,0-.636,1.343A1.018,1.018,0,0,0,1025.679,1353.69Z" transform="translate(-842.647 -1113.924)"/>
  <rect id="사각형_5" data-name="사각형 5" class="cls-1" width="1.856" height="7.087" transform="translate(181.972 242.535) rotate(-22.079)"/>
  <path id="패스_21" data-name="패스 21" class="cls-1" d="M1063.089,1353l-1.078.512c-.76.353-1.1.3-1.255-.035a.653.653,0,0,1,.018-.672,2.947,2.947,0,0,0,.9-.247c1.361-.654,2.121-1.909,1.432-3.358a1.854,1.854,0,0,0-.76-.831l1.1-.53-.583-1.237-2.3,1.113a3.25,3.25,0,0,0-1.043.3,2.61,2.61,0,0,0-1.467,3.553,2.32,2.32,0,0,0,1.644,1.255l.018.053a1.756,1.756,0,0,0-.141,1.538,1.31,1.31,0,0,0,1.1.8l.035.053a1.752,1.752,0,0,0-.283,1.767c.548,1.131,1.944,1.078,3.464.371,2.139-1.025,3-2.651,2.386-3.941C1065.687,1352.344,1064.627,1352.256,1063.089,1353Zm-3.517-2.174a1.158,1.158,0,0,1,.442-1.661,1.324,1.324,0,0,1,1.131,2.351A1.164,1.164,0,0,1,1059.572,1350.824Zm4.012,5.391c-.937.442-1.679.424-1.926-.106a1.052,1.052,0,0,1,.071-.937,3.823,3.823,0,0,0,.937-.336l.778-.371c.689-.336,1.114-.389,1.343.053C1065,1355.013,1064.538,1355.755,1063.584,1356.215Z" transform="translate(-870.83 -1108.601)"/>
  <path id="패스_22" data-name="패스 22" class="cls-1" d="M1093.678,1322.061a3.157,3.157,0,0,0-1.4,2.015l-.6-1.184-1.29-2.192-1.591.937,5.09,8.713,1.591-.937-2.457-4.207c.194-.724.371-1.149.884-1.431.6-.354,1.06-.159,1.608.778l2.121,3.623,1.608-.937-2.227-3.818C1096.1,1321.884,1094.986,1321.283,1093.678,1322.061Z" transform="translate(-896.365 -1087.278)"/>
  <path id="패스_23" data-name="패스 23" class="cls-1" d="M1160.08,1281.044l1.326-.336c.884-.212,1.467-.389,1.891.159.389.53.23,1.167-.548,1.75a3.693,3.693,0,0,1-2.528.6l-.088,1.679a5.013,5.013,0,0,0,3.552-.972c1.732-1.308,1.962-3.111,1.043-4.33a2.608,2.608,0,0,0-3.04-.9l-1.29.318c-.831.23-1.5.442-1.909-.088-.371-.495-.177-1.114.5-1.608a3.013,3.013,0,0,1,2.05-.583l.053-1.52a4.194,4.194,0,0,0-3.075.813c-1.52,1.149-1.874,2.9-.954,4.118A2.642,2.642,0,0,0,1160.08,1281.044Z" transform="translate(-952.144 -1049.796)"/>
  <path id="패스_24" data-name="패스 24" class="cls-1" d="M1208.931,1259.7a1.924,1.924,0,0,1-2.775-.477c-.884-1.007-.919-2.139-.106-2.863a1.676,1.676,0,0,1,1.131-.371l-.124-1.485a3.1,3.1,0,0,0-2.068.778,3.529,3.529,0,0,0-.247,5.2,3.377,3.377,0,0,0,5.037.495,3.512,3.512,0,0,0,1.167-2.174l-1.361-.442A2.116,2.116,0,0,1,1208.931,1259.7Z" transform="translate(-990.974 -1032.779)"/>
  <path id="패스_25" data-name="패스 25" class="cls-1" d="M1222.525,1222.76a3.221,3.221,0,0,0-.813,2.315l-.9-.99-1.82-1.767-1.29,1.325,7.229,7.052,1.29-1.326-3.5-3.393a2.068,2.068,0,0,1,.46-1.626c.477-.495.972-.442,1.75.318l3,2.916,1.29-1.325-3.164-3.075C1224.823,1221.929,1223.6,1221.646,1222.525,1222.76Z" transform="translate(-1002.483 -1006.076)"/>
  <path id="패스_26" data-name="패스 26" class="cls-1" d="M1276.267,1186.414a3.419,3.419,0,1,0,.672,4.984A3.433,3.433,0,0,0,1276.267,1186.414Zm-.477,4.03c-.619.742-1.626.619-2.651-.23-1.043-.848-1.361-1.838-.742-2.563.619-.742,1.626-.6,2.669.247C1276.091,1188.729,1276.409,1189.7,1275.79,1190.444Z" transform="translate(-1045.903 -975.933)"/>
  <path id="패스_27" data-name="패스 27" class="cls-1" d="M1303.265,1150.974a3.417,3.417,0,1,0-1.114-4.931A3.446,3.446,0,0,0,1303.265,1150.974Zm.124-4.065c.548-.8,1.573-.742,2.687.035,1.1.76,1.485,1.7.937,2.492s-1.573.742-2.651-.018C1303.248,1148.641,1302.841,1147.687,1303.389,1146.909Z" transform="translate(-1071.505 -942.314)"/>
  <path id="패스_28" data-name="패스 28" class="cls-1" d="M1319.185,1113.191a2.38,2.38,0,0,0,.354-.9l-1.29-.513a.942.942,0,0,1-.106.23c-.088.159-.318.248-.672.035l-7.016-4.242-.954,1.573,6.946,4.207C1317.559,1114.251,1318.531,1114.286,1319.185,1113.191Z" transform="translate(-1078.058 -912.007)"/>
  <rect id="사각형_6" data-name="사각형 6" class="cls-1" width="3.464" height="1.326" transform="translate(238.806 196.347) rotate(-61.608)"/>
  <rect id="사각형_7" data-name="사각형 7" class="cls-1" width="3.411" height="1.308" transform="matrix(0.731, -0.682, 0.682, 0.731, 67.142, 64.147)"/>
  <rect id="사각형_8" data-name="사각형 8" class="cls-1" width="1.838" height="9.226" transform="translate(68.528 56.139) rotate(-40.133)"/>
  <path id="패스_29" data-name="패스 29" class="cls-1" d="M411.587,280.371l4.578,6.2,1.485-1.1-4.578-6.2,2.1-1.538-.9-1.237-5.673,4.189.9,1.237Z" transform="translate(-336.384 -227.631)"/>
  <path id="패스_30" data-name="패스 30" class="cls-1" d="M480.951,251.318l-1.608-2.846,1.078-.6c1.732-.972,2.633-2.58,1.591-4.419-1.078-1.891-2.792-1.75-4.578-.742L474.8,244.2l4.542,8.024Zm-3.818-6.751.919-.513c1.113-.619,1.873-.636,2.4.283s.247,1.7-.848,2.315l-.972.548Z" transform="translate(-390.883 -199.215)"/>
  <path id="패스_31" data-name="패스 31" class="cls-1" d="M533.031,236.476l-1.767-3.765a1.831,1.831,0,0,1,.866-1.926,2.293,2.293,0,0,1,.707-.212L532.447,229a2.207,2.207,0,0,0-.813.212,2.4,2.4,0,0,0-1.184,2.121l-.053.018-.636-1.06-1.361.636,2.987,6.31Z" transform="translate(-435.01 -188.526)"/>
  <path id="패스_32" data-name="패스 32" class="cls-1" d="M570.368,223.254a3.673,3.673,0,1,0-4.454-2.174A3.4,3.4,0,0,0,570.368,223.254Zm-2.1-5.444c.884-.336,1.7.265,2.174,1.5.477,1.22.283,2.209-.6,2.545s-1.7-.247-2.156-1.467C567.187,219.153,567.381,218.163,568.265,217.81Z" transform="translate(-465.649 -177.99)"/>
  <path id="패스_33" data-name="패스 33" class="cls-1" d="M612.992,210.823c.23.742.194,1.184-.389,1.361a1.605,1.605,0,0,1-.583.071l.106,1.4a3.249,3.249,0,0,0,1.166-.177c1.679-.53,1.873-1.838,1.414-3.252L612.55,203.4l-1.75.548Z" transform="translate(-502.847 -167.451)"/>
  <path id="패스_34" data-name="패스 34" class="cls-1" d="M607.517,189.786a1,1,0,1,0-.6-1.891,1,1,0,1,0,.6,1.891Z" transform="translate(-498.998 -154.632)"/>
  <path id="패스_35" data-name="패스 35" class="cls-1" d="M644.328,199.943a4.419,4.419,0,0,0,2.192-1.343l-.884-.937a2.855,2.855,0,0,1-1.414.848,1.831,1.831,0,0,1-2.3-1.22l4.171-1.043a2.763,2.763,0,0,0-.124-.831c-.46-1.873-1.767-3-3.641-2.527a3.678,3.678,0,0,0,2,7.052Zm-1.608-5.691c.866-.212,1.432.265,1.661,1.184l-2.757.689A1.589,1.589,0,0,1,642.719,194.252Z" transform="translate(-526.831 -158.71)"/>
  <path id="패스_36" data-name="패스 36" class="cls-1" d="M690.275,190.084a3.417,3.417,0,0,0,2.1-1.22l-.919-1.078a2.163,2.163,0,0,1-1.237.778c-.99.177-1.856-.548-2.068-1.838-.23-1.308.336-2.28,1.4-2.457a1.59,1.59,0,0,1,1.131.265l.654-1.308a3.137,3.137,0,0,0-2.139-.424,3.485,3.485,0,0,0-2.9,4.224C686.705,189.342,688.384,190.42,690.275,190.084Z" transform="translate(-564.948 -150.459)"/>
  <path id="패스_37" data-name="패스 37" class="cls-1" d="M726.031,172.264l.336,3.075c.159,1.555.9,2.527,2.563,2.368a4.308,4.308,0,0,0,1.432-.424l-.442-1.29a2.509,2.509,0,0,1-.672.23c-.619.071-.99-.265-1.061-1.06l-.336-3.075,1.714-.177-.159-1.432-1.714.177L727.5,168.8l-1.52.159-.018,1.873-1.06.194.141,1.343Z" transform="translate(-596.781 -138.966)"/>
  <path id="패스_38" data-name="패스 38" class="cls-1" d="M791.251,171.877a3.765,3.765,0,0,0,2.969-1.308l-.954-1.167a2.608,2.608,0,0,1-1.926.884c-1.467-.018-2.386-1.255-2.351-3.252.035-1.979,1.1-3.164,2.492-3.146a2.372,2.372,0,0,1,1.679.8l.99-1.149a3.823,3.823,0,0,0-2.686-1.237c-2.333-.035-4.312,1.714-4.365,4.754C787.062,170.127,788.936,171.824,791.251,171.877Z" transform="translate(-647.985 -133.613)"/>
  <path id="패스_39" data-name="패스 39" class="cls-1" d="M841.855,170.333a2.079,2.079,0,0,0,.954-.106l-.141-1.379a.57.57,0,0,1-.248,0c-.177-.018-.371-.159-.336-.566l.53-8.059-1.82-.124-.53,7.971C840.193,169.379,840.6,170.245,841.855,170.333Z" transform="translate(-691.749 -131.804)"/>
  <path id="패스_40" data-name="패스 40" class="cls-1" d="M869.649,186.305a2.837,2.837,0,0,0,2.368-.866h.053v1.007l1.485.194.919-6.928-1.82-.247-.619,4.666a1.657,1.657,0,0,1-1.52.672c-.672-.088-.919-.495-.778-1.573l.53-4.083-1.82-.247-.566,4.33C867.67,184.98,868.165,186.111,869.649,186.305Z" transform="translate(-714.453 -147.281)"/>
  <path id="패스_41" data-name="패스 41" class="cls-1" d="M917.415,179.65h.035a2.8,2.8,0,0,0,1.626,1.29c1.5.336,3.2-.725,3.712-3.075.459-2.086-.248-3.676-1.927-4.047a3,3,0,0,0-2.068.406l.283-1.1.53-2.439-1.785-.389-2.121,9.721,1.4.3Zm1.113-4.03a1.941,1.941,0,0,1,1.5-.407c.937.212,1.2,1.007.9,2.315-.318,1.485-1.114,2.05-1.944,1.873a1.971,1.971,0,0,1-1.131-.778Z" transform="translate(-753.859 -140.201)"/>
  <path id="패스_42" data-name="패스 42" class="cls-1" d="M1001.831,218.567a1.2,1.2,0,0,0,.8-2.262,1.169,1.169,0,0,0-1.485.76A1.138,1.138,0,0,0,1001.831,218.567Z" transform="translate(-824.135 -178.022)"/>
  <path id="패스_43" data-name="패스 43" class="cls-1" d="M1056.331,235.52a3.712,3.712,0,0,0,3.234.071l-.371-1.449a2.541,2.541,0,0,1-2.121-.018c-1.308-.636-1.626-2.139-.76-3.941.866-1.785,2.333-2.4,3.588-1.785a2.317,2.317,0,0,1,1.184,1.432l1.379-.636a3.759,3.759,0,0,0-1.909-2.245c-2.1-1.025-4.631-.283-5.974,2.457C1053.255,232.162,1054.228,234.5,1056.331,235.52Z" transform="translate(-867.695 -186.475)"/>
  <path id="패스_44" data-name="패스 44" class="cls-1" d="M1099.842,259.1c2.086,1.255,4.471.548,6.027-2.015,1.538-2.563,1.007-4.931-1.1-6.2-2.086-1.255-4.436-.636-5.992,1.944C1097.261,255.4,1097.756,257.843,1099.842,259.1Zm.566-5.285c1.025-1.7,2.386-2.262,3.552-1.555s1.308,2.174.283,3.871c-1.007,1.679-2.4,2.315-3.588,1.608C1099.488,257.029,1099.4,255.492,1100.407,253.813Z" transform="translate(-903.854 -206.022)"/>
  <rect id="사각형_9" data-name="사각형 9" class="cls-1" width="9.226" height="1.838" transform="translate(201.767 56.611) rotate(-54.746)"/>
  <path id="패스_45" data-name="패스 45" class="cls-1" d="M1165.844,304.436l2.35-2.863c.672-.813,1.308-1.8,1.873-2.633l.053.035-.53,2.121-1.078,5.514,1.449,1.184,5.85-7.123-1.343-1.113-2.333,2.846c-.672.813-1.325,1.838-1.873,2.651l-.053-.035.548-2.121,1.043-5.5-1.449-1.2-5.85,7.123Z" transform="translate(-958.686 -243.849)"/>
  <rect id="사각형_10" data-name="사각형 10" class="cls-1" width="1.308" height="3.411" transform="matrix(0.69, -0.724, 0.724, 0.69, 215.154, 63.607)"/>
  <path id="패스_46" data-name="패스 46" class="cls-1" d="M419.527,467.736a90.668,90.668,0,0,0,48.109-48.109c1.149-2.7,2.156-5.461,3.022-8.236H430.591a53.555,53.555,0,0,1-93.584-1.891,53.661,53.661,0,0,1,0-50.159,53.555,53.555,0,0,1,93.584-1.891h40.067c-.866-2.775-1.873-5.532-3.022-8.236a90.388,90.388,0,1,0-48.109,118.522Z" transform="translate(-241.956 -242.038)"/>
  <path id="패스_47" data-name="패스 47" class="cls-1" d="M798.614,698.737a20.067,20.067,0,0,0-13.874,0,18.176,18.176,0,0,0-5.673,3.729A17.661,17.661,0,0,0,775.337,708a17.2,17.2,0,0,0,9.438,22.764,19.1,19.1,0,0,0,13.8,0,17.67,17.67,0,0,0,5.691-3.694,17.215,17.215,0,0,0,5.037-12.319,18.153,18.153,0,0,0-1.255-6.769,16.772,16.772,0,0,0-9.438-9.243Zm-2.9,20.573a5.168,5.168,0,0,1-4.03,1.679,5.265,5.265,0,0,1-4.047-1.679,7.618,7.618,0,0,1,0-9.084,5.284,5.284,0,0,1,4.047-1.714,5.187,5.187,0,0,1,4.03,1.714,7.618,7.618,0,0,1,0,9.084Z" transform="translate(-637.285 -574.223)"/>
  <rect id="사각형_11" data-name="사각형 11" class="cls-1" width="12.036" height="32.944" transform="translate(177.218 124.019)"/>
  <path id="패스_48" data-name="패스 48" class="cls-1" d="M1139.891,734.645V701.7h-11.435v11.046c0,1.2.035,2.421.088,3.641q.08,1.352.265,2.545L1118.594,701.7H1107v32.944h11.435V722.768c0-.742-.035-1.679-.088-2.863a23.1,23.1,0,0,0-.265-2.368l10.11,17.091h11.7Z" transform="translate(-911.348 -577.681)"/>
</svg>
