<svg xmlns="http://www.w3.org/2000/svg" width="1215.186" height="1019.867" viewBox="0 0 1215.186 1019.867">
  <defs>
    <style>
      .cls-1 {
        fill: #ff5300;
      }
    </style>
  </defs>
  <path id="패스_12" data-name="패스 12" class="cls-1" d="M655.644,728.194c-70.682,0-77.611,12.068-142.287,0s-70.22-8.486-116.417-48.273-48.507-65.6-68.372-110.873S323.486,513.611,299,481.273,278.213,461.639,230.63,439.7s-81.954-.669-113.821-40.743S107.84,349.4,92.038,309.419s-40.482-32.908-61.789-56.361S-10.83,214.467-5.078,120.784,150.786,30.017,230.63,35.007c81.307,5.082,91.933,35.572,166.31,40.654s83.617-2.31,131.2-20.327,63.29-40.654,127.5-50.817,140.44,0,140.44,0,109.025,0,166.31,103.482-37.42,148.986-22.175,246.693,62.366,77.611,83.155,144.135,7.392,119.189-38.806,181.093-126.581,60.227-188.485,48.273S726.326,728.194,655.644,728.194Z" transform="matrix(-0.951, -0.309, 0.309, -0.951, 982.342, 1017.986)"/>
</svg>
